<?xml version="1.0" encoding="UTF-8" standalone="no"?>
<svg
   xmlns:svg="http://www.w3.org/2000/svg"
   xmlns="http://www.w3.org/2000/svg"
   version="1.1"
   width="635.73157"
   height="189.67102"
   id="svg3278">
  <defs
     id="defs3280" />
  <g
     transform="translate(-32.134223,-437.52632)"
     id="layer1">
    <path
       d="m 635.52534,618.19745 c 7.26804,-0.0221 9.16645,-3.33878 9.12782,-13.31095 -0.0309,-9.97769 -1.73837,-13.43235 -9.11127,-13.40476 l -5.08266,0.0177 0.0993,26.72123 4.96677,-0.0221 z m -10.10462,-30.54012 9.61346,-0.0353 c 10.21499,-0.0397 14.98309,4.25487 15.03275,17.43888 0.0442,13.33302 -4.58598,17.06362 -14.63541,17.09673 l -9.88939,0.0397 -0.12141,-34.54112 z m -25.29521,5.7e-4 5.02747,-0.0177 0.10508,30.52908 12.84186,-0.0499 0.009,4.01204 -17.86382,0.0609 -0.12141,-34.53561 z m -20.8113,15.95596 c 5.02748,-0.0177 6.60581,-2.03085 6.58925,-6.34091 -0.0177,-4.00653 -1.66111,-5.70626 -6.6334,-5.68971 l -5.2427,0.0221 0.0441,12.03062 5.2427,-0.0221 z m -10.32536,-15.95437 10.4854,-0.0353 c 7.15767,-0.0265 11.64988,3.06285 11.67196,9.58035 0.0177,5.26478 -2.32339,7.97995 -7.1246,9.19956 1.91496,0.64568 3.39396,2.24057 4.77361,5.79457 l 3.91276,9.91146 -5.51868,0.0221 -3.80234,-9.7128 c -1.65559,-4.20519 -3.23943,-5.04955 -5.75041,-5.04403 l -3.554,0.0177 0.0552,14.78442 -5.02747,0.0177 -0.12141,-34.53561 z m -14.30757,16.76234 c -0.0397,-9.67416 -2.34542,-14.33189 -8.57595,-14.30981 -6.22502,0.0265 -8.5594,4.54183 -8.52629,14.11666 0.0309,9.67969 2.4006,14.33189 8.63114,14.30982 6.22502,-0.0221 8.50422,-4.54184 8.4711,-14.11667 m -22.5105,0.0265 c -0.0397,-11.67742 4.80121,-18.06248 13.86832,-18.0956 9.06712,-0.0353 14.0063,6.16984 14.05044,17.74793 0.0397,11.98095 -4.47009,18.06249 -13.81313,18.0956 -9.34305,0.0353 -14.06148,-5.81664 -14.10563,-17.74793 m -45.56626,-16.76172 5.40275,-0.0221 3.83545,17.53269 c 1.16443,5.41378 1.8377,9.87284 2.11915,12.32311 l 0.11038,0 c 0.37526,-2.45579 1.06509,-7.22389 2.08604,-11.88713 l 3.97893,-18.01282 5.73938,-0.0177 4.10587,18.07904 c 0.94368,4.31005 1.61144,8.66425 1.95359,11.77676 l 0.11037,0 c 0.42472,-3.06284 1.17547,-7.47223 2.24609,-12.63767 l 3.59815,-17.26228 4.97229,-0.0177 -8.01306,34.56872 -6.12016,0.0221 -3.88512,-17.12984 c -0.94369,-4.21071 -1.72733,-9.2713 -1.9536,-11.3739 l -0.11037,0 c -0.2649,1.75493 -1.12028,7.62123 -1.87082,11.18627 l -3.92375,17.3561 -6.17535,0.0221 -8.20621,-34.50802 z m -38.34964,-0.22869 19.2821,-0.072 0.0177,3.96237 -14.26015,0.0499 0.0397,10.52956 11.52842,-0.0442 0.009,3.96237 -11.52842,0.0397 0.0442,12.08029 14.97205,-0.0499 0.009,4.01205 -19.98849,0.0662 -0.12715,-34.53561 z m -34.30762,0.12141 5.02747,-0.0177 0.0499,14.13322 13.54824,-0.0499 -0.0552,-14.13322 5.02747,-0.0177 0.12715,34.53561 -5.02747,0.0221 -0.0605,-16.34619 -13.54824,0.0499 0.0609,16.34067 -5.02747,0.0177 -0.12141,-34.53561 z m -21.51049,4.08763 -8.90156,0.0309 -0.0177,-4.01204 22.83611,-0.083 0.009,4.01204 -8.90156,0.0353 0.10508,30.52356 -5.02196,0.0221 -0.11037,-30.52908 z m -39.78273,11.94342 c 5.02748,-0.0177 6.60581,-2.03085 6.58925,-6.34091 -0.0177,-4.00652 -1.66111,-5.70626 -6.63339,-5.68971 l -5.24271,0.0177 0.0442,12.03062 5.2427,-0.0177 z m -10.32536,-15.95437 10.48541,-0.0397 c 7.15766,-0.0221 11.64983,3.06836 11.67191,9.58587 0.0177,5.25925 -2.32335,7.97994 -7.12456,9.19404 1.91497,0.6512 3.39396,2.24608 4.77362,5.80008 l 3.91271,9.91147 -5.51864,0.0221 -3.80233,-9.71279 c -1.65559,-4.2052 -3.23944,-5.04955 -5.75594,-5.04403 l -3.54848,0.0177 0.0552,14.78442 -5.02748,0.0221 -0.12141,-34.54113 z m -25.82447,20.57073 9.17749,-0.0309 -1.82115,-5.95461 c -1.66111,-5.36411 -2.1026,-7.3177 -2.65998,-9.97217 l -0.11037,0 c -0.53531,2.75932 -1.02095,4.71843 -2.69309,9.98873 l -1.8929,5.97116 z m 2.00327,-20.66176 5.57382,-0.0177 11.42909,34.54665 -5.51864,0.0177 -3.09043,-10.01081 -11.6388,0.0397 -3.13458,10.03839 -5.13233,0.0177 11.51187,-34.62942 z m -36.32753,0.0918 19.2821,-0.072 0.0177,3.96238 -14.26015,0.0494 0.0397,10.52956 11.52842,-0.0441 0.009,3.96237 -11.52842,0.0441 0.0442,12.07477 14.97205,-0.0499 0.009,4.01204 -19.99401,0.0662 -0.12141,-34.53561 z m -34.30767,0 5.02196,-0.0177 0.0552,14.13874 13.54825,-0.0552 -0.0552,-14.13322 5.02748,-0.0177 0.12715,34.53561 -5.02748,0.0221 -0.0609,-16.3462 -13.54825,0.0494 0.0609,16.34067 -5.02748,0.0177 -0.12141,-34.5356 z M 51.372505,474.7056 c -2.428199,19.547 11.500832,25.72787 24.977335,31.69903 l 5.441372,2.46683 c 0.0044,0 2.46683,1.1258 2.46683,1.1258 8.84085,4.00653 14.685083,6.64996 13.443391,16.66628 -1.258249,10.10462 -11.142121,12.21825 -19.210363,12.2017 -4.955733,-0.004 -21.224665,-2.12468 -29.960662,-3.26152 l -5.684192,-0.7119 c -2.571683,-0.23178 -4.249348,1.24169 -4.597022,4.02308 0,0.0177 -1.04854,10.07151 -1.04854,10.07151 -0.381007,3.01317 0.8885,3.77475 3.509851,4.19968 l 0.982316,0.16556 c 4.24383,0.74501 17.168469,2.98558 36.086345,3.01317 11.925767,0.0221 40.059764,-3.11251 43.713094,-32.48267 2.73724,-22.01383 -10.33088,-27.8967 -26.870225,-35.34685 l -4.039639,-1.70526 c -9.53068,-3.9679 -16.417935,-6.83207 -15.214873,-16.53934 0.976798,-7.85854 6.412652,-11.05383 18.752317,-11.03727 3.631261,0.004 8.23932,0.50771 8.28899,0.51323 0.70086,0.10464 17.61548,2.56065 20.18164,2.50546 2.83106,-0.0552 4.18864,-1.26377 4.5308,-4.0286 l 1.20858,-9.16645 c 0.36997,-2.97454 -0.89954,-3.74715 -3.53193,-4.18864 -0.13774,-0.0177 -14.43122,-2.34542 -27.079931,-2.36198 -28.095363,-0.0442 -43.685503,10.78341 -46.345484,32.17915 M 552.20117,448.10963 c -3.03525,-0.004 -4.37076,1.46244 -5.53519,3.84097 0,0.0177 -28.49823,62.84068 -28.49823,62.84068 -2.88072,6.29676 -5.47448,13.69725 -6.67202,17.2954 -0.0826,-3.66989 -0.40309,-10.96553 -1.70526,-17.17951 l -12.65423,-62.88483 c -0.57394,-2.73172 -2.14123,-4.00101 -4.90606,-4.00101 l -16.9698,-0.0265 c -2.79243,-0.004 -4.18865,1.23618 -4.54736,4.03964 -0.11567,0.92713 0.13775,2.45028 0.44701,3.53745 0,0 22.91337,96.79131 22.91337,96.79131 0.58497,2.82554 2.00878,3.97342 4.89503,3.97893 l 16.33515,0.0265 c 3.38292,0.004 4.46458,-1.65559 5.52415,-3.83545 l 46.99117,-96.7306 0.25386,-0.55739 c 0.49115,-1.04854 0.91609,-1.95911 1.03198,-2.92487 0.1713,-1.36862 -0.0552,-2.37853 -0.67879,-3.09596 -0.6512,-0.73397 -1.6887,-1.09268 -3.20081,-1.09268 l -13.02397,-0.0221 z m -104.84684,7.78127 c -7.6102,-8.61458 -18.62539,-13.18401 -31.87563,-13.20057 -29.38672,-0.0442 -51.94138,22.57121 -56.13002,56.27903 -2.27368,18.28323 1.50107,34.04997 10.62337,44.39188 7.48326,8.48766 18.38808,12.98535 31.52243,13.00742 29.50813,0.0442 52.20076,-22.90784 56.4501,-57.1013 2.20194,-17.73137 -1.55073,-33.13387 -10.59025,-43.37646 m -14.87824,43.80692 c -2.30679,18.62538 -9.21612,40.82133 -28.94523,40.79374 -4.98333,-0.0133 -9.10023,-1.81563 -12.22929,-5.36963 -6.15328,-6.97004 -8.45455,-20.7611 -6.34091,-37.83024 3.12906,-25.18152 13.7745,-40.19772 28.45959,-40.17565 5.17648,0.009 9.43686,1.87634 12.68182,5.54071 6.11464,6.94244 8.44351,20.44102 6.37402,37.04107 M 268.00867,451.52871 c -6.96452,3.26703 -9.34856,6.3685 -10.21499,13.27783 l -10.84412,87.2496 c -0.17659,1.37414 0.0499,2.38405 0.6788,3.09595 0.64568,0.7395 1.69422,1.09269 3.2008,1.09269 l 16.32964,0.0265 c 2.86417,0.004 4.42043,-1.30791 4.75706,-4.0286 l 9.92251,-79.81048 c 0.78916,-6.34643 3.01317,-13.11779 19.50837,-13.09572 6.94244,0.009 12.0251,1.79356 15.12105,5.30341 3.65886,4.15001 3.8189,9.96665 3.30014,14.11667 l -9.12782,73.39782 c -0.17085,1.43485 0.0397,2.47787 0.64568,3.1677 0.60154,0.68431 1.60041,1.01542 3.02422,1.02094 l 16.54486,0.0221 c 2.80346,0.004 4.2052,-1.23066 4.55287,-4.02309 l 9.24923,-74.44084 c 1.08165,-8.68633 -0.75053,-15.79433 -5.46345,-21.13085 -8.3221,-9.43135 -23.85153,-11.42909 -35.4241,-11.45117 -16.27997,-0.0221 -29.14391,3.18977 -35.76075,6.20847 m -43.4184,4.36188 c -7.60468,-8.61459 -18.62539,-13.18401 -31.87011,-13.20057 -29.38672,-0.0442 -51.9469,22.57121 -56.13554,56.28454 -2.26816,18.27772 1.49555,34.04445 10.61785,44.38637 7.49431,8.48766 18.39913,12.99087 31.52795,13.00742 29.51366,0.0441 52.19524,-22.90785 56.44459,-57.1013 2.20745,-17.73137 -1.55074,-33.13388 -10.58474,-43.37646 m -14.87272,43.80691 c -1.89841,15.24799 -8.17861,40.82134 -28.94523,40.78822 -4.98885,-0.004 -9.10575,-1.81011 -12.24033,-5.36411 -6.14776,-6.97003 -8.46007,-20.7611 -6.32987,-37.83023 3.12906,-25.18152 13.76347,-40.19221 28.45407,-40.17565 5.17648,0.0132 9.44238,1.87633 12.6763,5.54071 6.12017,6.93692 8.44903,20.44101 6.38506,37.04106 m 378.67976,-51.56911 c 15.21487,-3.75819 27.91325,-5.5076 39.73968,-5.49104 14.13874,0.0221 24.10539,3.15666 29.61851,9.30993 3.40499,3.80786 5.11577,8.8243 5.11025,14.93895 -0.004,1.2748 -0.0773,2.61031 -0.22604,3.98445 -0.70639,6.32987 -2.3399,15.94885 -4.22176,27.07993 -2.51098,14.85065 -5.52967,34.61839 -7.68745,52.5098 -0.48564,3.69749 -1.628,4.53632 -4.62462,4.61358 l -15.87711,-0.0221 c -3.02421,0.0221 -4.5915,-1.16443 -3.91271,-4.66324 1.67767,-8.70289 3.89064,-23.8405 8.49318,-52.85195 l 0.13774,-0.59602 c 0,0 -1.34103,0.72294 -2.04741,1.1258 -6.21398,3.54297 -11.51187,5.18752 -18.96202,7.47223 -12.80875,3.93479 -26.05347,8.00754 -27.43313,20.42999 -0.40838,3.73611 0.36953,6.74377 2.34542,8.9457 3.18425,3.554 8.77462,4.42594 12.90808,4.43146 4.9447,0.0132 11.35735,-1.22513 16.54486,-3.1401 -0.48012,1.26377 -5.46896,14.96102 -6.11464,16.43449 -0.93817,1.93704 -2.0419,2.48339 -3.64782,2.77036 -5.13233,0.93264 -9.28786,0.96576 -14.64093,0.95472 -11.73262,-0.0177 -19.46422,-4.12242 -24.67381,-9.93354 -5.88839,-6.58925 -6.60581,-16.1696 -5.78905,-22.49395 2.94143,-22.89681 23.53697,-29.62403 43.88969,-34.8005 14.71268,-3.74164 29.91651,-7.32323 31.04783,-17.51063 0.36953,-3.26703 -0.35893,-5.94357 -2.14674,-7.94683 -2.62136,-2.93039 -10.02184,-4.06171 -17.08017,-4.06723 -10.52404,-0.0221 -16.30205,1.12028 -29.55229,5.73386 -2.5772,1.08717 -5.0661,0.16556 -5.13233,-1.81011 0.009,-2.98559 0.0221,-10.40263 0.0221,-11.83196 0.17659,-2.47234 2.61031,-3.25047 3.91271,-3.57607"
       id="path104"
       style="fill:#007fbe;fill-opacity:1;fill-rule:nonzero;stroke:none" />
  </g>
</svg>
