<?xml version="1.0" encoding="utf-8"?>
<!-- Generator: Adobe Illustrator 13.0.1, SVG Export Plug-In  -->
<!DOCTYPE svg PUBLIC "-//W3C//DTD SVG 1.1//EN" "http://www.w3.org/Graphics/SVG/1.1/DTD/svg11.dtd" [
	<!ENTITY ns_flows "http://ns.adobe.com/Flows/1.0/">
]>
<svg version="1.1"
	 xmlns="http://www.w3.org/2000/svg" xmlns:xlink="http://www.w3.org/1999/xlink" xmlns:a="http://ns.adobe.com/AdobeSVGViewerExtensions/3.0/"
	 x="0px" y="0px" width="160px" height="112px" viewBox="-0.589 -0.579 160 112" enable-background="new -0.589 -0.579 160 112"
	 xml:space="preserve">
<defs>
</defs>
<path fill="#FFFFFF" d="M108.143,32.383L108.143,32.383C92.08,32.582,71.9,36.668,63.024,45.347
	c-4.492,4.392-6.049,9.678-4.626,15.708c1.576,6.691,7.051,10.408,11.648,11.656c1.65,0.459,2.873,0.434,3.193,0.42
	c-0.238-0.223-1.047-0.984-1.047-0.984l-0.984-1.271c-0.729-1.133-1.312-2.455-1.727-3.935c-0.259-0.91-0.385-1.82-0.385-2.721
	c0-2.643,1.096-5.198,3.21-7.39c5.032-5.216,15.795-7.851,31.987-7.83c0.005,0,9.569,0.176,9.569,0.176
	c0.011,0,0.228-0.025,0.228-0.025c0.021-0.025,0.108-0.254,0.108-0.254c0.304-0.861,1.33-3.992,1.76-8.138
	c0.245-2.348,0.226-4.988-0.052-7.844l-0.096-0.261l-0.145-0.05C113.415,32.42,110.953,32.348,108.143,32.383L108.143,32.383z"/>
<path fill="#FFFFFF" d="M76.005,0.426h-0.001c-2.261,0.204-4.78,0.659-6.416,1.158c-0.001,0-0.131,0.036-0.131,0.036l-0.152,0.052
	c0,0.002-0.085,0.174-0.085,0.174c-1.206,4.211-7.032,8.796-9.833,11l-1.172,0.937l-0.994,0.841
	c-2.257,1.903-4.387,3.701-6.362,5.835c-1.576,1.705-3.777,4.298-5.311,6.972c-1.275,2.222-2.119,4.659-2.58,7.45
	c-0.226,1.364-0.342,2.754-0.342,4.038c0,0.519,0.019,1.019,0.057,1.494l0.043,0.463c0.138,1.305,0.356,2.439,0.613,3.193
	c0.001,0,0.001,0.003,0.003,0.004c0.031-0.12,0.075-0.279,0.075-0.279l0.403-1.454c0-0.001,0.118-0.392,0.118-0.392l0.523-1.698
	c1.128-3.234,2.839-6.081,5.23-8.708c5.086-5.586,10.419-8.64,15.575-11.595c4.005-2.295,7.788-4.462,11.327-7.695
	c4.749-4.34,6.485-8.433,7.524-10.878c0,0,0.318-0.743,0.322-0.753c-0.015,0.046-0.232-0.009-0.232-0.009
	C82.129,0.244,78.68,0.166,76.005,0.426L76.005,0.426z"/>
<path fill="#FFFFFF" d="M85.597,18.224L85.597,18.224c-9.981,1.935-18.63,5.242-25.703,9.828
	c-8.785,5.695-13.34,11.451-15.234,19.247c-0.044,0.181-0.066,0.389-0.066,0.622c0,1.19,0.559,3.032,1.57,5.117
	c0.543,1.12,1.118,1.989,1.672,2.829c0,0,0.054,0.082,0.104,0.157c0.017-0.134,0.04-0.27,0.04-0.27
	c0.133-0.729,0.334-1.831,0.875-3.284c1.094-2.944,3.656-9.841,15.437-15.519c6.59-3.176,14.296-5.252,23.558-6.346
	c10.915-1.29,20.4-1.567,27.435-0.804c0.031,0.004,0.082,0.009,0.129,0.013c-0.005-0.027-0.008-0.059-0.008-0.059
	c-0.65-3.431-2.155-7.521-3.835-10.423c-0.009-0.019-1.131-1.935-1.131-1.935l-0.304-0.486c0,0-0.103-0.155-0.103-0.156
	c-0.001,0-0.101-0.087-0.101-0.087c0,0-0.355-0.074-0.355-0.074c-0.936-0.114-3.189-0.226-6.189-0.226
	C98.327,16.305,92.179,16.947,85.597,18.224L85.597,18.224z M115.463,29.818c0.032,0.002,0.069,0.006,0.069,0.006
	C115.493,29.82,115.474,29.818,115.463,29.818L115.463,29.818z"/>
<path fill="#FFFFFF" d="M1.461,90.276c0,1.73,0.571,3.127,1.746,4.268c1.217,1.217,2.339,1.754,5.701,3.262
	c4.386,1.957,6.494,3.041,6.494,6.199c0,3.039-2.438,5.244-5.797,5.244c-2.285,0-4.453-0.656-5.946-1.799
	c-1.284-1.025-2.116-2.494-2.482-4.371c-0.007-0.033-0.126-0.459-0.126-0.459c-0.726-0.002-0.78,0.441-0.78,0.576
	c0,1.152,0.385,4.717,0.635,6.465c0.021,0.152,0.063,0.467,0.11,0.512c-0.002,0,0.173,0.02,0.173,0.02l0.327-0.135l0.695-0.248
	l1.237,0.146c1.26,0.184,3.369,0.49,5.732,0.49c4.191,0,6.068-0.994,7.233-1.857c1.661-1.223,2.653-3.236,2.653-5.393
	c0-4.602-3.839-6.279-7.226-7.762c-0.049-0.021-0.183-0.078-0.183-0.078C6.737,93.192,4.7,92.295,4.7,89
	c0-2.936,2.125-4.904,5.288-4.904c1.688,0,3.208,0.424,4.282,1.197c1.491,0.994,1.971,2.434,2.395,3.707l0.226,0.582
	c0.301-0.004,0.688-0.092,0.688-0.285l-0.175-1.912l-0.036-0.355c-0.108-0.896-0.066-2.541-0.05-3.244l0.006-0.27l-0.019-0.172
	c-0.006,0.021-0.347,0.049-0.347,0.049c0.066-0.031-0.511,0.184-0.511,0.184l-0.836-0.092l-1.404-0.162
	c-1.214-0.133-2.636-0.213-3.71-0.213C4.924,83.11,1.461,85.856,1.461,90.276L1.461,90.276z"/>
<path fill="#FFFFFF" d="M43.222,92.545c-0.083,0-0.109,0.279-0.109,0.279s0.015,0.236,0.015,0.246
	c0.006-0.027,0.308-0.008,0.308-0.008c0.688,0.029,2.27,0.1,2.27,1.59c0,0.83-0.593,2.285-1.07,3.453l-0.056,0.137
	c0,0.002-3.618,8.041-3.618,8.041c-0.045,0.104-0.147,0.164-0.259,0.16c-0.111-0.004-0.207-0.078-0.244-0.182
	c-0.592-1.68-3.629-10.779-3.629-11.652c0-1.27,0.957-1.332,2.28-1.418c0,0,0.297-0.07,0.299-0.07c-0.001,0-0.001-0.008-0.001-0.02
	c0-0.063,0.016-0.277,0.016-0.277l-0.025-0.262c-0.001,0.004-0.17-0.018-0.17-0.018l-3.825,0.043l-4.081-0.043
	c-0.229,0-0.239,0-0.239,0.322l0.022,0.186c0.863,0.141,1.201,0.195,1.651,0.695c0.419,0.559,0.957,1.879,1.792,3.992
	c0.027,0.07,0.026,0.146-0.006,0.217l-4.039,8.416c-0.048,0.1-0.147,0.16-0.255,0.156c-0.108-0.006-0.203-0.072-0.243-0.174
	l-2.098-5.377l-0.666-1.721c-0.003-0.008-0.155-0.432-0.155-0.432c-0.628-1.756-1.225-3.418-1.225-4.131
	c0-0.953,0.596-1.416,1.989-1.547c0.003,0,0.299-0.045,0.304-0.045c-0.005,0-0.006-0.023-0.006-0.061
	c0-0.08,0.009-0.219,0.009-0.219s-0.025-0.209-0.032-0.277c-0.169,0-4.073,0.041-4.073,0.041l-3.358-0.043l-0.181,0.023
	c0,0,0,0.002,0,0.006c0,0.033-0.016,0.166-0.016,0.166c0,0.32,0,0.32,0.344,0.49c0.492,0.225,0.88,0.781,1.585,2.24
	c1.568,3.389,4.001,9.791,5.496,14.096c0.02,0.055,0.263,0.637,0.267,0.65c0.009-0.039,1.392-0.236,1.392-0.236
	s0.134-0.023,0.138-0.023c0,0-0.001,0-0.001-0.002c0-0.029,0.113-0.307,0.113-0.307c1.375-3.102,2.029-4.484,4.859-9.977
	c0.05-0.096,0.152-0.154,0.26-0.146c0.108,0.006,0.203,0.076,0.238,0.178c1.607,4.498,2.703,8.02,3.151,9.668
	c0.085,0.311,0.202,0.736,0.265,0.805c0.036-0.025,1.098-0.152,1.098-0.152c0.356-0.039,0.52-0.15,0.629-0.426
	c0.01-0.021,1.064-2.426,1.064-2.426c0.004-0.01,0.365-0.789,0.365-0.789c1.31-2.826,2.794-6.031,3.769-7.863
	c1.262-2.373,2.689-4.865,3.694-5.346c0.241-0.139,0.269-0.154,0.269-0.434l-0.028-0.186c-0.082-0.01-1.077,0.006-1.077,0.006
	l-1.81,0.027l-2.472-0.031L43.222,92.545L43.222,92.545L43.222,92.545z"/>
<path fill="#FFFFFF" d="M54.035,83.858c0,0.83,1.021,1.852,1.853,1.852c0.965,0,2.023-1.035,2.023-1.979
	c0-0.852-1.045-1.895-1.895-1.895C55.197,81.836,54.035,82.881,54.035,83.858L54.035,83.858z M56.222,92.219
	c-0.003,0.002-2.532,1.154-2.532,1.154l-1.948,0.893c0.003-0.002,0.005-0.002,0.005-0.002c0,0.002-0.122,0.066-0.122,0.066
	c-0.28,0.15-0.31,0.164-0.31,0.408c0,0,0.014,0.225,0.014,0.227c0.002-0.014,0.453,0.094,0.453,0.094
	c2.296,0.289,2.296,1.092,2.296,5.545c0,2.529,0,5.994-0.353,7.096c-0.327,1.023-0.915,1.439-2.421,1.713
	c-0.457,0.1-0.457,0.1-0.457,0.414l0.021,0.209c0.09-0.014,1.716-0.045,1.716-0.045l3.218-0.053l3.545,0.061l1.045,0.023
	l0.161-0.018c0,0,0,0,0-0.002c0-0.029,0.036-0.303,0.036-0.303l-0.027-0.254c0.001,0-0.399-0.072-0.399-0.072
	c-1.649-0.082-2.674-0.205-2.928-1.625c-0.144-0.637-0.215-2.922-0.215-6.975l0.124-6.129c0.003-0.051,0.174-2.604,0.174-2.604
	c-0.014-0.066-0.153-0.092-0.153-0.092C56.891,91.95,56.584,92.038,56.222,92.219L56.222,92.219z"/>
<path fill="#FFFFFF" d="M63.428,96.993c0,2.893,2.536,4.068,4.772,5.107c2.689,1.262,4.451,2.242,4.451,4.283
	c0,1.441-0.951,3.121-3.63,3.121c-0.743,0-4.5-0.197-5.534-4.07l-0.174-0.533c-0.385,0.014-0.565,0.064-0.565,0.166l0.065,0.926
	l0.104,1.625l-0.027,1.371l-0.015,0.711l0.045,0.279c0.023,0,0.308-0.041,0.308-0.041l0.31-0.043l0.438,0.055
	c0,0,0.604,0.094,0.605,0.094c0.808,0.135,2.161,0.361,3.845,0.361c1.217,0,7.292-0.236,7.292-4.912
	c0-3.037-2.788-4.328-5.027-5.365c-3.253-1.52-4.578-2.322-4.578-4.156c0-0.477,0.155-2.865,3.204-2.865
	c2.062,0,3.661,1.111,4.625,3.219c0.008,0.02,0.183,0.395,0.183,0.395c0.001,0,0.001,0,0.003,0c0.503,0,0.584-0.057,0.596-0.068
	c0-0.008,0.016-0.17,0.016-0.17l-0.201-2.543l-0.094-1.002c-0.008-0.057-0.087-0.51-0.087-0.51
	c-0.025,0.035-0.312,0.074-0.312,0.074l-0.308,0.045l-0.687-0.078c-0.72-0.1-1.924-0.264-2.969-0.264
	C63.749,92.204,63.428,96.192,63.428,96.993L63.428,96.993z"/>
<path fill="#FFFFFF" d="M79.239,96.993c0,2.893,2.536,4.068,4.771,5.107c2.688,1.262,4.452,2.242,4.452,4.283
	c0,1.441-0.952,3.121-3.63,3.121c-0.743,0-4.502-0.197-5.536-4.07l-0.172-0.533c-0.387,0.014-0.567,0.064-0.567,0.166l0.065,0.926
	l0.105,1.625l-0.026,1.371l-0.017,0.711l0.046,0.279c0.021,0,0.308-0.041,0.308-0.041l0.308-0.043l0.439,0.055l0.606,0.094
	c0.808,0.135,2.16,0.361,3.844,0.361c1.218,0,7.292-0.236,7.292-4.912c0-3.037-2.787-4.328-5.026-5.365
	c-3.254-1.52-4.579-2.322-4.579-4.156c0-0.477,0.155-2.865,3.206-2.865c2.061,0,3.659,1.111,4.625,3.219
	c0.008,0.02,0.182,0.395,0.182,0.395c0.001,0,0.003,0,0.004,0c0.502,0,0.584-0.057,0.595-0.068c0-0.008,0.018-0.17,0.018-0.17
	l-0.202-2.543l-0.095-1.002c-0.009-0.057-0.088-0.51-0.088-0.51c-0.023,0.035-0.311,0.074-0.311,0.074l-0.308,0.045l-0.688-0.078
	c-0.72-0.1-1.925-0.264-2.968-0.264C79.559,92.204,79.239,96.192,79.239,96.993L79.239,96.993z"/>
<path fill="#FFFFFF" d="M103.943,83.565l-3.175,0.098l-5.015-0.17c0,0-0.183,0.014-0.188,0.014c0.007,0,0.01,0.021,0.01,0.057
	c0,0.1-0.017,0.295-0.017,0.295l0.009,0.131c0.066,0.055,0.536,0.115,0.815,0.152C98.788,84.516,99,85.561,99,88.446v6.164
	c0,3.51,0,8.813-0.255,11.461c-0.159,1.389-0.356,3.109-3.097,3.346c-0.006,0.002-0.458,0.084-0.459,0.084
	c0.001,0,0.003,0.01,0.003,0.025c0,0.078-0.018,0.301-0.018,0.301l0.03,0.256c0-0.002,0.208,0.023,0.208,0.023l0.499-0.023
	c0.969-0.057,3.237-0.188,9.063-0.188c5.961,0,7.896,0.119,8.823,0.178l0.741,0.033c0.182,0,0.24-0.115,0.481-0.963
	c0.92-3.326,1.158-5.254,1.158-5.818c0-0.092,0-0.195-0.663-0.195c-0.051,0.047-0.144,0.371-0.226,0.656
	c-0.413,1.357-1.161,3.047-2.526,3.852c-1.551,0.932-4.548,0.932-7.193,0.932c-1.669,0-2.677,0-2.944-1.277
	c-0.307-1.313-0.345-5.898-0.345-9.748c0-2.203,0.027-9.523,0.389-11.234c0.301-1.664,1.335-2.047,3.138-2.17
	c-0.015,0,0.485-0.096,0.485-0.096c-0.003,0,0.025-0.355,0.025-0.355c0-0.17-0.026-0.195-0.195-0.195L103.943,83.565L103.943,83.565
	z"/>
<path fill="#FFFFFF" d="M121.484,83.858c0,0.83,1.021,1.852,1.853,1.852c0.963,0,2.022-1.035,2.022-1.979
	c0-0.852-1.045-1.895-1.896-1.895C122.646,81.836,121.484,82.881,121.484,83.858L121.484,83.858z M123.67,92.219
	c-0.003,0-2.538,1.16-2.538,1.16l-1.938,0.887c0.002-0.002,0.002-0.002,0.002-0.002c0,0.002-0.123,0.066-0.123,0.066
	c-0.28,0.15-0.308,0.164-0.308,0.408c0,0,0.014,0.225,0.014,0.227c0.003-0.014,0.452,0.094,0.452,0.094
	c2.296,0.289,2.296,1.092,2.296,5.545c0,2.529,0,5.994-0.353,7.096c-0.327,1.023-0.915,1.439-2.422,1.713
	c-0.456,0.1-0.456,0.1-0.456,0.414l0.021,0.209c0.089-0.014,1.718-0.045,1.718-0.045l3.217-0.053l3.546,0.061l1.043,0.023
	l0.163-0.018c0,0,0,0,0-0.002c0-0.029,0.034-0.303,0.034-0.303l-0.026-0.254l-0.401-0.072c-1.646-0.082-2.673-0.205-2.926-1.625
	c-0.145-0.635-0.216-2.922-0.216-6.975l0.126-6.156c0-0.023,0.171-2.576,0.171-2.576c-0.016-0.066-0.153-0.092-0.153-0.092
	C124.341,91.95,124.032,92.038,123.67,92.219L123.67,92.219z"/>
<path fill="#FFFFFF" d="M135.197,84.747L135.197,84.747c-1.861,2.398-1.9,4.049-1.983,7.66c-0.004,0.107-0.065,0.201-0.163,0.244
	l-2.296,1.02c-0.03,0.02-0.049,0.432-0.049,0.432l0.007,0.211l2.187-0.059c0.071,0,0.144,0.027,0.193,0.078
	c0.051,0.051,0.08,0.119,0.077,0.191l-0.084,11.57c-0.083,2.393-0.376,3.033-2.401,3.32c0.007,0-0.304,0.074-0.304,0.074
	s0,0.008,0,0.02c0,0.063-0.016,0.275-0.016,0.275s0.037,0.303,0.037,0.307c0.006-0.025,1.22-0.057,1.22-0.057l2.638-0.055
	l4.256,0.061l1.482,0.025c0.577,0,0.577,0,0.577-0.408l-0.022-0.277c0,0.008-0.321-0.047-0.321-0.047
	c-2.956,0-3.898-0.41-3.991-2.98c0-0.006-0.086-11.869-0.086-11.869c-0.002-0.07,0.028-0.141,0.079-0.191
	c0.051-0.053,0.12-0.082,0.193-0.082h5.778c0.28,0,0.28,0,0.28-0.789l0.003-0.234l-0.025-0.582l-6.036,0.025
	c-0.149,0-0.272-0.121-0.272-0.273c0-6.582,0.217-9.748,5.076-9.748c2.235,0,3.331,0.715,3.959,1.256
	c-0.003-0.002,0.338,0.291,0.338,0.291c0.213,0.189,0.415,0.365,0.507,0.365c0.284-0.014,2.021-0.793,2.021-1.555
	c0-1.002-1.688-2.447-4.742-2.447C139.725,80.518,136.769,82.702,135.197,84.747L135.197,84.747z"/>
<path fill="#FFFFFF" d="M143.924,102.219c0,1.92,0.514,8.186,7.122,8.186c3.04,0,5.767-1.43,7.177-2.654
	c0.377-0.293,0.415-0.396,0.415-0.559c-0.004-0.002-0.06-0.348-0.06-0.348s-0.059-0.146-0.057-0.141
	c-2.232,1.619-4.533,1.822-5.434,1.822c-5.141,0-5.917-5.145-6.011-7.359c0-0.002,0-0.006,0-0.01c0-0.129,0.091-0.242,0.22-0.268
	c3.053-0.619,7.085-1.408,11.255-2.061c0-0.02,0.004-0.027,0.004-0.053c0-0.309-0.1-1.029-0.336-1.973
	c-0.925-3.393-3.823-4.6-6.025-4.6C148.129,92.204,143.924,95.952,143.924,102.219L143.924,102.219z M147.13,100.047
	c-0.063-0.055-0.097-0.133-0.095-0.211c0.043-3.309,1.289-6.645,3.968-6.645c2.313,0,4.057,2.563,4.057,4.223
	c0,0.672-0.471,1.045-1.735,1.369c-3.078,0.771-4.168,1.023-5.972,1.324C147.273,100.122,147.19,100.096,147.13,100.047
	L147.13,100.047z"/>
<path fill="#ED1A3B" d="M116.229,40.787c0.255-2.455,0.216-5.13-0.053-7.899c-0.016-0.175-0.061-0.314-0.172-0.426
	c-0.09-0.09-0.186-0.117-0.317-0.128c-2.264-0.186-4.74-0.258-7.548-0.223c-15.944,0.198-36.297,4.231-45.306,13.041
	c-4.226,4.133-6.25,9.395-4.701,15.966c1.76,7.475,7.975,10.809,11.842,11.857c1.969,0.549,3.447,0.424,3.447,0.424
	s0.282,0.025,0.312-0.115c0.017-0.09-0.228-0.275-0.228-0.275s-0.71-0.607-1.113-1.045c-0.412-0.453-0.624-0.738-0.958-1.238
	c-0.584-0.908-1.21-2.147-1.691-3.858c-1.034-3.656,0.106-7.099,2.758-9.848c4.514-4.677,14.438-7.769,31.792-7.747l9.564,0.175
	c0,0,0.297,0.021,0.412-0.095c0.085-0.084,0.082-0.073,0.186-0.365C115.023,47.379,115.857,44.372,116.229,40.787L116.229,40.787z"
	/>
<path fill="#ED1A3B" d="M84.254,0.343c-2.072-0.367-5.523-0.456-8.275-0.188c-2.223,0.2-4.793,0.656-6.471,1.168
	c-0.175,0.053-0.306,0.065-0.395,0.155c-0.079,0.079-0.123,0.184-0.155,0.292C67.57,6.617,59.916,11.985,58.04,13.576
	c-2.678,2.269-5.111,4.245-7.38,6.698c-1.943,2.1-3.966,4.612-5.349,7.022c-1.449,2.525-2.203,5.063-2.613,7.54
	c-0.349,2.103-0.41,4.066-0.288,5.598l0,0c0.001,0.012,0.029,0.332,0.046,0.473c0.23,2.194,0.601,3.17,0.636,3.284
	c0.062,0.189,0.121,0.395,0.274,0.395c0.144,0,0.186-0.26,0.234-0.429c0.048-0.167,0.275-1.048,0.481-1.738
	c0.245-0.816,0.381-1.281,0.639-2.084c0.77-2.208,2.176-5.318,5.173-8.609c8.954-9.832,18.701-11.794,26.884-19.272
	c5.182-4.737,6.797-9.148,7.837-11.55c0.067-0.157,0.15-0.275,0.067-0.391C84.61,0.41,84.451,0.377,84.254,0.343L84.254,0.343z"/>
<path fill="#ED1A3B" d="M115.67,29.7c-0.62-3.282-2.093-7.444-3.863-10.504c-0.334-0.701-1.037-1.772-1.439-2.428
	c-0.173-0.279-0.138-0.182-0.238-0.288c-0.143-0.153-0.55-0.159-0.55-0.159c-1.019-0.125-3.382-0.226-6.192-0.226h-0.009
	c-4.932-0.062-11.058,0.546-17.834,1.86c-10.036,1.946-18.742,5.291-25.798,9.868c-7.601,4.928-13.185,10.498-15.35,19.411
	c-0.342,1.401,0.552,3.92,1.523,5.922c0.607,1.25,1.251,2.193,1.858,3.113c0.08,0.124,0.188,0.257,0.281,0.203
	c0.065-0.038,0.081-0.107,0.111-0.26c0.138-0.674,0.294-1.91,0.94-3.648c1.175-3.16,3.859-9.854,15.298-15.369
	c7.622-3.673,15.901-5.427,23.473-6.321c11.992-1.417,21.089-1.485,27.373-0.803c0.167,0.019,0.364,0.059,0.414-0.031
	C115.718,29.952,115.698,29.848,115.67,29.7L115.67,29.7z"/>
<polygon fill="#FFFFFF" points="109.186,35.174 105.852,35.174 105.852,38.985 102.04,38.985 102.04,42.318 105.852,42.318 
	105.852,46.13 109.186,46.13 109.186,42.318 112.998,42.318 112.998,38.985 109.186,38.985 109.186,35.174 "/>
<path d="M16.576,108.805c-1.317,0.979-3.315,1.914-7.396,1.914c-3.443,0-6.29-0.637-6.969-0.637c-0.511,0-0.553,0.383-1.021,0.383
	c-0.424,0-0.468-0.129-0.553-0.766C0.383,107.915,0,104.344,0,103.196c0-0.381,0.255-0.848,1.02-0.848
	c0.297,0,0.339,0.252,0.424,0.68c0.34,1.742,1.105,3.188,2.381,4.207c1.444,1.105,3.527,1.742,5.78,1.742
	c3.145,0,5.524-1.998,5.524-4.973c0-2.977-1.955-3.996-6.333-5.949c-3.314-1.488-4.505-2.041-5.781-3.316
	c-1.487-1.445-1.828-3.102-1.828-4.463c0-4.334,3.231-7.438,9.308-7.438c1.105,0,2.551,0.084,3.741,0.213
	c1.147,0.125,2.082,0.254,2.209,0.254c0.17,0,0.299-0.086,0.426-0.172c0.127-0.041,0.17-0.041,0.426-0.041
	c0.253,0,0.297,0.17,0.297,0.424c0,0.258-0.085,2.426,0.042,3.486c0.085,0.85,0.212,2.084,0.212,2.295
	c0,0.426-0.551,0.555-0.935,0.555c-0.254,0-0.297-0.129-0.51-0.766c-0.426-1.277-0.893-2.637-2.295-3.57
	c-1.062-0.766-2.549-1.148-4.123-1.148c-2.848,0-5.015,1.742-5.015,4.633c0,3.145,1.999,3.996,6.927,6.164
	c3.401,1.486,7.439,3.229,7.439,8.031C19.339,105.79,18.02,107.743,16.576,108.805L16.576,108.805z"/>
<path d="M49.343,93.42c-0.977,0.467-2.508,3.23-3.57,5.229s-2.763,5.695-4.123,8.629c-0.297,0.723-0.935,2.168-1.063,2.422
	c-0.17,0.424-0.468,0.551-0.85,0.594l-1.062,0.129c-0.297,0.043-0.341-0.043-0.595-0.977c-0.511-1.871-1.66-5.484-3.146-9.648
	c-2.892,5.609-3.528,6.969-4.847,9.945c-0.168,0.467-0.168,0.467-0.466,0.508l-1.489,0.215c-0.168,0-0.212-0.129-0.466-0.809
	c-1.446-4.164-3.91-10.668-5.485-14.07c-0.636-1.316-1.018-1.91-1.402-2.082c-0.51-0.254-0.551-0.254-0.551-0.764
	c0-0.338,0.085-0.469,0.467-0.469c0.892,0,2.677,0.043,3.358,0.043c1.487,0,2.847-0.043,4.166-0.043
	c0.168,0,0.211,0.256,0.211,0.553c0,0.512-0.043,0.555-0.552,0.596c-1.36,0.127-1.743,0.553-1.743,1.275s0.723,2.678,1.361,4.463
	c0.68,1.742,1.359,3.57,2.763,7.098c0.765-1.572,3.144-6.502,4.037-8.416c-0.808-2.039-1.361-3.4-1.743-3.91
	c-0.382-0.426-0.637-0.467-1.444-0.594c-0.255-0.043-0.299-0.213-0.299-0.469c0-0.426,0.085-0.596,0.511-0.596
	c1.146,0,3.314,0.043,4.081,0.043c0.935,0,3.357-0.043,3.825-0.043c0.424,0,0.467,0.17,0.467,0.553c0,0.512-0.043,0.555-0.552,0.639
	c-1.319,0.084-2.041,0.127-2.041,1.146c0,0.766,2.805,9.266,3.613,11.563c1.274-2.762,2.761-5.992,3.611-8.035
	c0.469-1.145,1.105-2.676,1.105-3.484c0-1.105-1.02-1.273-1.997-1.316c-0.553,0-0.596-0.043-0.596-0.512
	c0-0.383,0.043-0.553,0.382-0.553c0.469,0,1.999,0.043,3.359,0.043c1.02,0,2.252-0.043,2.805-0.043c0.297,0,0.382,0.17,0.382,0.469
	C49.769,93.165,49.64,93.25,49.343,93.42L49.343,93.42z"/>
<path d="M60.393,110.293c-0.594,0-2.506-0.084-4.59-0.084c-1.658,0-4.037,0.084-4.845,0.084c-0.298,0-0.383-0.084-0.383-0.467
	c0-0.51,0.085-0.553,0.68-0.68c1.402-0.256,1.913-0.596,2.21-1.529c0.34-1.063,0.34-4.549,0.34-7.014c0-4.42,0-5.018-2.04-5.271
	c-0.681-0.129-0.723-0.129-0.723-0.594c0-0.469,0.212-0.512,0.594-0.725c0.808-0.338,3.443-1.611,4.462-2.039
	c0.426-0.213,0.765-0.299,1.064-0.299c0.297,0,0.424,0.129,0.424,0.385c-0.042,0.596-0.126,1.869-0.17,2.549
	c-0.042,0.977-0.126,2.891-0.126,6.164c0,1.316,0,5.992,0.211,6.928c0.214,1.189,1.022,1.318,2.678,1.402
	c0.595,0.043,0.681,0.127,0.681,0.596C60.861,110.209,60.733,110.293,60.393,110.293L60.393,110.293z M55.888,85.981
	c-0.977,0-2.125-1.145-2.125-2.123c0-1.146,1.318-2.295,2.254-2.295c0.977,0,2.167,1.148,2.167,2.168
	C58.184,84.793,57.035,85.981,55.888,85.981L55.888,85.981z"/>
<path d="M68.426,110.676c-1.785,0-3.23-0.254-3.995-0.383c-0.383-0.043-0.723-0.129-0.893-0.129c-0.127,0-0.426,0.086-0.595,0.086
	c-0.255,0-0.341-0.211-0.341-0.551c0-0.469,0.043-1.191,0.043-2.082c0-0.68-0.17-2.17-0.17-2.551c0-0.34,0.339-0.426,0.807-0.426
	c0.255,0,0.297,0.086,0.467,0.723c0.852,3.188,3.742,3.867,5.271,3.867c2.72,0,3.358-1.783,3.358-2.848
	c0-1.826-1.488-2.719-4.293-4.035c-2.38-1.105-4.93-2.34-4.93-5.355c0-1.957,1.361-5.059,6.927-5.059
	c1.531,0,3.358,0.338,3.656,0.338c0.127,0,0.424-0.084,0.594-0.084c0.297,0,0.297,0.084,0.383,0.723
	c0.085,0.977,0.297,2.891,0.297,3.57c0,0.383-0.085,0.512-0.85,0.512c-0.212,0-0.297-0.086-0.467-0.553
	c-0.468-1.021-1.658-3.061-4.378-3.061c-2.549,0-2.932,1.785-2.932,2.592c0,1.658,1.147,2.381,4.42,3.91
	c2.296,1.061,5.186,2.424,5.186,5.611C75.991,109.911,70.891,110.676,68.426,110.676L68.426,110.676z"/>
<path d="M84.236,110.676c-1.787,0-3.231-0.254-3.996-0.383c-0.383-0.043-0.723-0.129-0.894-0.129c-0.126,0-0.424,0.086-0.595,0.086
	c-0.255,0-0.34-0.211-0.34-0.551c0-0.469,0.043-1.191,0.043-2.082c0-0.68-0.17-2.17-0.17-2.551c0-0.34,0.34-0.426,0.808-0.426
	c0.254,0,0.297,0.086,0.467,0.723c0.85,3.188,3.74,3.867,5.271,3.867c2.72,0,3.355-1.783,3.355-2.848
	c0-1.826-1.486-2.719-4.291-4.035c-2.381-1.105-4.93-2.34-4.93-5.355c0-1.957,1.359-5.059,6.927-5.059
	c1.531,0,3.357,0.338,3.655,0.338c0.127,0,0.424-0.084,0.595-0.084c0.298,0,0.298,0.084,0.382,0.723
	c0.085,0.977,0.298,2.891,0.298,3.57c0,0.383-0.085,0.512-0.851,0.512c-0.211,0-0.297-0.086-0.466-0.553
	c-0.47-1.021-1.658-3.061-4.378-3.061c-2.551,0-2.934,1.785-2.934,2.592c0,1.658,1.147,2.381,4.422,3.91
	c2.295,1.061,5.184,2.424,5.184,5.611C91.801,109.911,86.701,110.676,84.236,110.676L84.236,110.676z"/>
<path d="M115.304,109.147c-0.254,0.893-0.339,1.232-0.764,1.232c-0.895,0-1.616-0.215-9.564-0.215c-7.352,0-9.053,0.215-9.563,0.215
	c-0.425,0-0.51-0.129-0.51-0.553c0-0.596,0.043-0.596,0.723-0.68c2.466-0.213,2.678-1.615,2.848-3.104
	c0.256-2.633,0.256-7.947,0.256-11.434c0-2.379,0-6.164,0-6.164c0-2.846-0.214-3.695-2.381-4.035
	c-0.977-0.129-1.063-0.17-1.063-0.553c0-0.596,0.087-0.639,0.469-0.639c1.317,0,3.782,0.172,5.015,0.172
	c1.572,0,4.294-0.172,5.355-0.172c0.297,0,0.468,0.129,0.468,0.469c0,0.594-0.042,0.637-0.766,0.723
	c-1.869,0.129-2.636,0.551-2.891,1.955c-0.34,1.615-0.381,8.416-0.381,11.178c0,3.867,0.041,8.416,0.339,9.691
	c0.214,1.02,0.893,1.063,2.678,1.063c2.635,0,5.566,0,7.056-0.893c1.146-0.682,1.913-2.084,2.381-3.615
	c0.169-0.594,0.254-0.934,0.509-0.934c0.809,0,0.936,0.172,0.936,0.469C116.452,103.961,116.196,105.917,115.304,109.147
	L115.304,109.147z"/>
<path d="M127.84,110.293c-0.594,0-2.506-0.084-4.589-0.084c-1.656,0-4.037,0.084-4.846,0.084c-0.297,0-0.381-0.084-0.381-0.467
	c0-0.51,0.084-0.553,0.68-0.68c1.402-0.256,1.912-0.596,2.21-1.529c0.34-1.063,0.34-4.549,0.34-7.014c0-4.42,0-5.018-2.04-5.271
	c-0.68-0.129-0.722-0.129-0.722-0.594c0-0.469,0.212-0.512,0.595-0.725c0.806-0.338,3.442-1.611,4.461-2.039
	c0.426-0.213,0.765-0.299,1.063-0.299c0.297,0,0.426,0.129,0.426,0.385c-0.044,0.596-0.129,1.869-0.17,2.549
	c-0.042,0.977-0.127,2.891-0.127,6.164c0,1.316,0,5.992,0.211,6.928c0.213,1.189,1.02,1.318,2.679,1.402
	c0.595,0.043,0.68,0.127,0.68,0.596C128.31,110.209,128.181,110.293,127.84,110.293L127.84,110.293z M123.337,85.981
	c-0.979,0-2.125-1.145-2.125-2.123c0-1.146,1.317-2.295,2.252-2.295c0.979,0,2.169,1.148,2.169,2.168
	C125.633,84.793,124.482,85.981,123.337,85.981L123.337,85.981z"/>
<path d="M146.034,84.793c-0.257,0-0.511-0.299-1.021-0.723c-0.596-0.512-1.616-1.191-3.783-1.191c-4.59,0-4.804,2.805-4.804,9.477
	c0.425,0,5.016,0,5.949,0c0.426,0,0.384,0.129,0.384,1.064c0,0.85,0,1.063-0.555,1.063h-5.778c0,3.953,0.044,9.307,0.084,11.857
	c0.087,2.383,0.895,2.721,3.741,2.721c0.553,0.043,0.595,0.127,0.595,0.596c0,0.553-0.084,0.68-0.849,0.68
	c-0.64,0-3.741-0.086-5.738-0.086c-1.447,0-3.23,0.086-3.91,0.086c-0.214,0-0.255-0.254-0.255-0.553c0-0.51,0.041-0.553,0.551-0.637
	c1.786-0.256,2.085-0.682,2.167-3.061c0.087-2.805,0.087-8.5,0.087-11.563h-2.211c-0.254-0.041-0.254-0.084-0.254-0.422
	c0-0.512,0-0.555,0.211-0.682l2.296-1.018c0.086-3.699,0.128-5.359,2.039-7.824c1.83-2.379,4.931-4.334,8.332-4.334
	c3.188,0,5.016,1.529,5.016,2.721C148.328,83.942,146.373,84.793,146.034,84.793L146.034,84.793z"/>
<path d="M158.4,107.958c-1.616,1.402-4.421,2.719-7.354,2.719c-6.117,0-7.395-5.229-7.395-8.457c0-6.633,4.507-10.285,8.543-10.285
	c2.04,0,5.271,1.063,6.29,4.801c0.257,1.02,0.469,2.295,0.257,2.34c-3.827,0.594-7.608,1.316-11.392,2.082
	c0.127,2.975,1.275,7.098,5.738,7.098c1.359,0,3.484-0.383,5.44-1.871c0.126-0.127,0.213-0.168,0.254,0
	c0.042,0.297,0.085,0.512,0.127,0.809C158.909,107.489,158.782,107.661,158.4,107.958L158.4,107.958z M151.003,93.463
	c-2.505,0-3.653,3.229-3.696,6.377c1.786-0.299,2.891-0.555,5.951-1.32c1.315-0.338,1.528-0.68,1.528-1.105
	C154.786,95.887,153.131,93.463,151.003,93.463L151.003,93.463z"/>
</svg>
